<svg width="20" height="20" viewBox="0 0 20 20" fill="none" xmlns="http://www.w3.org/2000/svg">
<path fill-rule="evenodd" clip-rule="evenodd" d="M3.03085 3.2928C2.76643 3.06907 2.33773 3.06907 2.07331 3.2928C1.8089 3.51654 1.8089 3.87929 2.07331 4.10303L4.96823 6.55259C3.74354 7.4446 2.72159 8.52102 1.95547 9.72911C1.85144 9.89315 1.84809 10.0897 1.94648 10.2562L2.55208 10C1.94648 10.2562 1.94702 10.2571 1.94702 10.2571L1.94781 10.2585L1.95015 10.2624L1.95783 10.2751C1.96429 10.2857 1.97342 10.3006 1.9852 10.3194C2.00875 10.3571 2.04293 10.4107 2.08758 10.4778C2.17684 10.6121 2.30823 10.8012 2.48054 11.027C2.82431 11.4774 3.33535 12.0794 4.00473 12.6835C5.33115 13.8807 7.35969 15.1563 9.99998 15.1563L10.011 15.1562C11.4115 15.1368 12.7735 14.7859 13.9447 14.1481L16.9691 16.7072C17.2335 16.9309 17.6622 16.9309 17.9266 16.7072C18.1911 16.4835 18.1911 16.1207 17.9266 15.897L3.03085 3.2928ZM3.3257 10.0018C4.00736 9.00208 4.88822 8.11017 5.92875 7.36534L7.6546 8.82567C7.58721 8.91662 7.52731 9.01168 7.47544 9.11018C7.32742 9.39129 7.24782 9.69475 7.24141 10.0024C7.23499 10.3102 7.30188 10.6158 7.4381 10.9012C7.57431 11.1865 7.77706 11.4457 8.03424 11.6633C8.29141 11.8809 8.59776 12.0525 8.93499 12.1678C9.27223 12.283 9.63344 12.3396 9.99709 12.3342C10.3607 12.3288 10.7194 12.2614 11.0516 12.1362C11.168 12.0923 11.2803 12.0416 11.3878 11.9846L12.9598 13.3147C12.0608 13.754 11.0409 13.9951 9.99446 14.0104C7.89772 14.0086 6.20422 12.9934 4.99265 11.8998C4.3925 11.3582 3.93024 10.8143 3.61809 10.4053C3.49724 10.247 3.39955 10.1097 3.3257 10.0018ZM8.59536 10.0227C8.59779 9.90603 8.62125 9.79062 8.6647 9.68038L10.3777 11.1299C10.2474 11.1666 10.111 11.1865 9.9732 11.1885C9.79138 11.1912 9.61077 11.1629 9.44215 11.1053C9.27353 11.0477 9.12036 10.9619 8.99177 10.8531C8.86318 10.7443 8.76181 10.6147 8.6937 10.472C8.6256 10.3293 8.59215 10.1765 8.59536 10.0227Z" fill="#3C434F"/>
<path d="M16.6658 10.0115C14.7542 7.34494 12.211 5.55219 8.74657 6.08824C8.37872 6.14516 8.026 5.93897 7.95874 5.62772C7.89147 5.31647 8.13514 5.01801 8.50299 4.9611C12.9405 4.2745 15.985 6.74887 18.0014 9.66997C18.1438 9.84132 18.1696 10.0727 18.0449 10.2701C17.6117 10.9559 17.095 11.6015 16.5034 12.1965C16.2626 12.4386 15.8355 12.4697 15.5494 12.266C15.2632 12.0623 15.2265 11.7008 15.4672 11.4587C15.9165 11.007 16.3176 10.5226 16.6658 10.0115Z" fill="#3C434F"/>
</svg>
