<svg width="16" height="16" viewBox="0 0 16 16" fill="none" xmlns="http://www.w3.org/2000/svg">
<path fill-rule="evenodd" clip-rule="evenodd" d="M8.00005 5.55556C6.61931 5.55556 5.5 6.64997 5.5 8C5.5 9.35003 6.61931 10.4444 8.00005 10.4444C9.3808 10.4444 10.5001 9.35003 10.5001 8C10.5001 6.64997 9.3808 5.55556 8.00005 5.55556ZM6.75003 8C6.75003 7.32499 7.30968 6.77778 8.00005 6.77778C8.69043 6.77778 9.25008 7.32499 9.25008 8C9.25008 8.67501 8.69043 9.22222 8.00005 9.22222C7.30968 9.22222 6.75003 8.67501 6.75003 8Z" fill="#2D3648"/>
<path fill-rule="evenodd" clip-rule="evenodd" d="M15.434 7.72627C15.4341 7.7265 15.4342 7.7267 14.8752 8C15.4342 8.2733 15.4341 8.2735 15.434 8.27373L15.433 8.27569L15.4308 8.27986L15.4238 8.29344C15.4178 8.30478 15.4094 8.32064 15.3985 8.34073C15.3768 8.38091 15.3452 8.43803 15.304 8.50967C15.2216 8.65289 15.1003 8.85463 14.9412 9.09543C14.6239 9.57586 14.1522 10.218 13.5343 10.8624C12.3098 12.1394 10.4373 13.5 8.00005 13.5C5.56281 13.5 3.69026 12.1394 2.46585 10.8624C1.84794 10.218 1.3762 9.57586 1.05886 9.09543C0.899805 8.85463 0.778516 8.65289 0.696126 8.50967C0.654908 8.43803 0.623355 8.38091 0.601613 8.34073C0.59074 8.32064 0.582314 8.30478 0.576353 8.29344L0.56926 8.27986L0.567103 8.27569L0.566373 8.27427C0.566258 8.27404 0.565875 8.2733 1.1249 8C0.565875 7.7267 0.56598 7.7265 0.566095 7.72627L0.567103 7.72431L0.56926 7.72014L0.576353 7.70656C0.582314 7.69522 0.59074 7.67936 0.601613 7.65927C0.623355 7.61909 0.654908 7.56197 0.696126 7.49033C0.778516 7.34711 0.899805 7.14537 1.05886 6.90457C1.3762 6.42414 1.84794 5.78203 2.46585 5.13759C3.69026 3.8606 5.56281 2.5 8.00005 2.5C10.4373 2.5 12.3098 3.8606 13.5343 5.13759C14.1522 5.78203 14.6239 6.42414 14.9412 6.90457C15.1003 7.14537 15.2216 7.34711 15.304 7.49033C15.3452 7.56197 15.3768 7.61909 15.3985 7.65927C15.4094 7.67936 15.4178 7.69522 15.4238 7.70656L15.4308 7.72014L15.433 7.72431L15.434 7.72627ZM2.10893 8.43235C1.99675 8.2625 1.90619 8.11542 1.83788 8C1.90619 7.88458 1.99675 7.7375 2.10893 7.56765C2.39708 7.13142 2.82379 6.5513 3.37779 5.97352C4.49718 4.80606 6.0622 3.72222 8.00005 3.72222C9.93791 3.72222 11.5029 4.80606 12.6223 5.97352C13.1763 6.5513 13.603 7.13142 13.8912 7.56765C14.0034 7.7375 14.0939 7.88458 14.1622 8C14.0939 8.11542 14.0034 8.2625 13.8912 8.43235C13.603 8.86858 13.1763 9.4487 12.6223 10.0265C11.5029 11.1939 9.93791 12.2778 8.00005 12.2778C6.0622 12.2778 4.49718 11.1939 3.37779 10.0265C2.82379 9.4487 2.39708 8.86858 2.10893 8.43235Z" fill="#2D3648"/>
<path d="M14.8752 8L15.434 7.72627C15.522 7.89832 15.522 8.10168 15.434 8.27373L14.8752 8Z" fill="#2D3648"/>
<path d="M0.566095 7.72627L1.1249 8L0.565875 8.2733C0.477895 8.10125 0.478115 7.89832 0.566095 7.72627Z" fill="#2D3648"/>
</svg>
