<svg width="41" height="41" viewBox="0 0 41 41" fill="none" xmlns="http://www.w3.org/2000/svg">
<rect width="41" height="41" rx="20.5" fill="#F2F6FA"/>
<path d="M11 27.1703V29.383C11 29.5466 11.065 29.7036 11.1807 29.8193C11.2964 29.935 11.4534 30 11.617 30H13.8297C13.9931 30 14.1497 29.9352 14.2654 29.8198L24.755 19.3302L21.6698 16.245L11.1802 26.7346C11.0648 26.8503 11 27.0069 11 27.1703ZM24.0689 13.8459L27.1541 16.9311L28.6387 15.4465C28.87 15.2151 29 14.9013 29 14.574C29 14.2468 28.87 13.933 28.6387 13.7015L27.2985 12.3613C27.067 12.13 26.7532 12 26.426 12C26.0987 12 25.7849 12.13 25.5535 12.3613L24.0689 13.8459Z" stroke="black"/>
</svg>
