<svg width="103" height="54" viewBox="0 0 103 54" fill="none" xmlns="http://www.w3.org/2000/svg">
<path d="M8.75995 28.2C7.31995 28.2 6.31995 27.84 5.75995 27.12C5.23995 26.36 4.97995 25.52 4.97995 24.6V4.92C4.97995 4 5.23995 3.18 5.75995 2.46C6.31995 1.7 7.31995 1.32 8.75995 1.32H21.3599C22.8799 1.32 23.6599 2.34 23.6999 4.38C23.7399 6.38 22.9599 7.38 21.3599 7.38H12.6599C12.3799 7.38 12.2199 7.44 12.1799 7.56C12.1399 7.68 12.1199 7.82 12.1199 7.98V21.54C12.1199 21.7 12.1399 21.84 12.1799 21.96C12.2199 22.08 12.3799 22.14 12.6599 22.14H24.1199C25.0399 22.14 25.7799 22.28 26.3399 22.56V4.92C26.3399 4 26.5999 3.18 27.1199 2.46C27.6799 1.7 28.6799 1.32 30.12 1.32H41.6399C43.16 1.32 43.94 2.34 43.98 4.38C44.02 6.38 43.2399 7.38 41.6399 7.38H34.02C33.7399 7.38 33.5799 7.44 33.5399 7.56C33.4999 7.68 33.48 7.82 33.48 7.98V21.54C33.48 21.7 33.4999 21.84 33.5399 21.96C33.5799 22.08 33.7399 22.14 34.02 22.14H42.4199C43.9399 22.14 44.7199 23.16 44.76 25.2C44.8 27.2 44.02 28.2 42.4199 28.2H30.12C29.1999 28.2 28.4599 28.06 27.8999 27.78V41.64C27.8999 42.56 27.6199 43.4 27.0599 44.16C26.5399 44.88 25.5599 45.24 24.1199 45.24H2.39995C0.879948 45.24 0.0999478 44.24 0.0599478 42.24C0.0199478 40.2 0.799948 39.18 2.39995 39.18H20.2199C20.4999 39.18 20.6599 39.12 20.6999 39C20.7399 38.88 20.7599 38.74 20.7599 38.58V28.8C20.7599 28.64 20.7399 28.5 20.6999 28.38C20.6599 28.26 20.4999 28.2 20.2199 28.2H8.75995ZM102.589 50.16C102.589 52.08 101.389 53.04 98.9893 53.04C96.6293 53.04 95.4493 52.08 95.4493 50.16V38.34C95.4493 38.18 95.4293 38.04 95.3893 37.92C95.3493 37.8 95.1893 37.74 94.9093 37.74H68.5093C67.0293 37.74 66.2693 36.74 66.2293 34.74C66.2293 32.7 66.9893 31.68 68.5093 31.68H98.8093C100.249 31.68 101.229 32.06 101.749 32.82C102.309 33.54 102.589 34.36 102.589 35.28V50.16ZM49.8493 3.6C49.8493 1.68 51.0293 0.720002 53.3893 0.720002C55.7893 0.720002 56.9893 1.68 56.9893 3.6V31.02C56.9893 31.18 57.0093 31.32 57.0493 31.44C57.0893 31.56 57.2493 31.62 57.5293 31.62H62.9893C64.5093 31.62 65.2493 32.64 65.2093 34.68C65.2093 36.68 64.4693 37.68 62.9893 37.68H53.6293C52.1893 37.68 51.1893 37.32 50.6293 36.6C50.1093 35.84 49.8493 35 49.8493 34.08V3.6ZM70.7293 3.6C70.7293 1.68 71.9093 0.720002 74.2693 0.720002C76.6693 0.720002 77.8693 1.68 77.8693 3.6V27.54C77.8693 29.46 76.6693 30.44 74.2693 30.48C71.9093 30.48 70.7293 29.5 70.7293 27.54V18.42H60.0493C58.5693 18.42 57.8093 17.42 57.7693 15.42C57.7693 13.38 58.5293 12.36 60.0493 12.36H70.7293V3.6ZM91.6693 27.54C91.6693 29.46 90.4693 30.42 88.0693 30.42C85.7093 30.42 84.5293 29.46 84.5293 27.54V2.88C84.5293 0.960001 85.7093 7.15256e-07 88.0693 7.15256e-07C90.4693 7.15256e-07 91.6693 0.960001 91.6693 2.88V27.54ZM102.889 14.1C102.889 15.38 102.429 16.48 101.509 17.4C100.629 18.28 99.5493 18.72 98.2693 18.72C96.9893 18.72 95.8893 18.28 94.9693 17.4C94.0893 16.48 93.6493 15.38 93.6493 14.1C93.6493 12.82 94.0893 11.74 94.9693 10.86C95.8893 9.94 96.9893 9.48 98.2693 9.48C99.5493 9.48 100.629 9.94 101.509 10.86C102.429 11.74 102.889 12.82 102.889 14.1Z" fill="black"/>
</svg>
