<svg width="16" height="10" viewBox="0 0 16 10" fill="none" xmlns="http://www.w3.org/2000/svg">
<path d="M12.5 0C14.417 0 16 1.584 16 3.5C16 4.375 15.763 5.133 15.309 5.711C14.977 6.134 14.486 6.364 14.009 6.611C13.983 7.41 14.029 7.629 14.669 8.911C15.006 9.585 14.25 10.279 13.607 9.886C10.202 7.79 9 5.333 9 3.5C9 1.584 10.583 0 12.5 0ZM3.5 0C5.417 0 7 1.584 7 3.5C7 4.375 6.763 5.133 6.309 5.711C5.977 6.134 5.486 6.364 5.009 6.611C4.983 7.41 5.029 7.629 5.669 8.911C6.006 9.585 5.25 10.279 4.607 9.886C1.202 7.79 0 5.333 0 3.5C0 1.584 1.583 0 3.5 0Z" fill="#4C5EFF"/>
</svg>
