<svg width="16" height="10" viewBox="0 0 16 10" fill="none" xmlns="http://www.w3.org/2000/svg">
<path d="M3.5 0C1.583 0 0 1.584 0 3.5C0 4.375 0.237 5.133 0.691 5.711C1.023 6.134 1.514 6.364 1.991 6.611C2.017 7.41 1.971 7.629 1.331 8.911C0.994 9.585 1.75 10.279 2.393 9.886C5.798 7.79 7 5.333 7 3.5C7 1.584 5.417 0 3.5 0ZM12.5 0C10.583 0 9 1.584 9 3.5C9 4.375 9.237 5.133 9.691 5.711C10.023 6.134 10.514 6.364 10.991 6.611C11.017 7.41 10.971 7.629 10.331 8.911C9.994 9.585 10.75 10.279 11.393 9.886C14.798 7.79 16 5.333 16 3.5C16 1.584 14.417 0 12.5 0Z" fill="#4C5EFF"/>
</svg>
