<svg width="36" height="36" viewBox="0 0 36 36" fill="none" xmlns="http://www.w3.org/2000/svg">
<path d="M19.029 27.3329C19.632 27.4499 20.241 27.5114 20.856 27.5174C22.403 27.518 23.9326 27.1908 25.344 26.5574L29.9865 27.2399C30.2036 27.2414 30.4186 27.1972 30.6175 27.1101C30.8164 27.023 30.9946 26.8949 31.1407 26.7343C31.2867 26.5737 31.3973 26.384 31.4652 26.1778C31.533 25.9716 31.5567 25.7533 31.5345 25.5374L30.9765 20.8484C31.5742 19.4763 31.8802 17.995 31.875 16.4984C31.8711 15.0581 31.5832 13.6327 31.0279 12.3038C30.4725 10.9749 29.6606 9.76851 28.6385 8.7537C27.6165 7.73889 26.4043 6.93556 25.0715 6.38967C23.7387 5.84379 22.3113 5.56606 20.871 5.57237C18.3965 5.57204 15.9949 6.41044 14.0583 7.95074C12.1216 9.49104 10.7642 11.6423 10.2075 14.0534" stroke="#4C5EFF" stroke-width="1.5" stroke-linecap="round" stroke-linejoin="round"/>
<path d="M20.856 22.1171C20.8457 24.0107 20.2026 25.8465 19.029 27.3326C18.2353 28.3053 17.2339 29.088 16.0984 29.6235C14.9629 30.1589 13.7219 30.4335 12.4665 30.4271C11.2824 30.4202 10.1127 30.1673 9.03151 29.6846L5.56501 30.3041C5.39084 30.3234 5.21457 30.3019 5.05012 30.2414C4.88567 30.1809 4.73753 30.083 4.61738 29.9554C4.49724 29.8279 4.40838 29.6741 4.35781 29.5064C4.30725 29.3386 4.29636 29.1613 4.32601 28.9886L4.80601 25.4441C4.35054 24.3939 4.11862 23.2604 4.12501 22.1156C4.12291 20.293 4.71581 18.5195 5.81365 17.0645C6.91149 15.6096 8.45424 14.5528 10.2075 14.0546C10.9458 13.8344 11.7126 13.7247 12.483 13.7291C14.7055 13.7323 16.8359 14.6178 18.4059 16.1909C19.976 17.764 20.8572 19.8961 20.856 22.1186" stroke="#4C5EFF" stroke-width="1.5" stroke-linecap="round" stroke-linejoin="round"/>
</svg>
