<svg width="393" height="115" viewBox="0 0 393 115" fill="none" xmlns="http://www.w3.org/2000/svg">
<path d="M215.432 16.8809L219.658 12.2314C220.035 11.807 220.229 11.2512 220.198 10.6847C220.168 10.1181 219.915 9.58636 219.495 9.20476C219.075 8.82316 218.522 8.62244 217.955 8.64613C217.388 8.66981 216.853 8.91599 216.467 9.33129L212.241 13.978C207.095 10.0259 200.651 8.15251 194.189 8.72945C187.726 9.30638 181.716 12.2915 177.352 17.0926C172.987 21.8937 170.587 28.1599 170.627 34.6482C170.667 41.1364 173.145 47.3725 177.568 52.1194L173.342 56.7688C173.147 56.9776 172.996 57.223 172.897 57.4907C172.799 57.7583 172.754 58.0429 172.766 58.328C172.778 58.6131 172.846 58.893 172.967 59.1515C173.088 59.4099 173.259 59.6418 173.47 59.8337C173.681 60.0256 173.928 60.1737 174.197 60.2694C174.466 60.3651 174.751 60.4065 175.036 60.3911C175.321 60.3758 175.6 60.3041 175.857 60.1801C176.114 60.0561 176.344 59.8824 176.533 59.6689L180.759 55.0222C185.905 58.9743 192.349 60.8477 198.811 60.2708C205.274 59.6938 211.284 56.7087 215.648 51.9076C220.012 47.1066 222.413 40.8403 222.373 34.3521C222.333 27.8638 219.855 21.6277 215.432 16.8809ZM174.937 34.5001C174.94 30.5082 176.05 26.5954 178.145 23.1973C180.24 19.7993 183.237 17.0495 186.803 15.2542C190.368 13.4589 194.362 12.6887 198.339 13.0291C202.317 13.3696 206.121 14.8076 209.33 17.1827L180.49 48.9146C176.914 44.9654 174.935 39.8275 174.937 34.5001ZM196.5 56.0626C191.878 56.0675 187.377 54.5785 183.67 51.8175L212.51 20.0856C215.3 23.181 217.133 27.019 217.787 31.1347C218.44 35.2505 217.886 39.4674 216.192 43.2748C214.497 47.0821 211.735 50.3165 208.24 52.5862C204.745 54.8558 200.667 56.0634 196.5 56.0626Z" fill="#E2E4E7"/>
<path d="M96.6855 92.5664C99.2441 92.5859 101.061 94.9297 101.08 98.6211C101.061 102.312 99.2441 104.656 96.6855 104.656C94.1074 104.656 92.3105 102.312 92.3105 98.6211C92.3105 94.9297 94.1074 92.5859 96.6855 92.5664ZM96.6855 93.9336C94.9668 93.9531 93.7559 95.7891 93.7559 98.6211C93.7559 101.453 94.9668 103.289 96.6855 103.289C98.4238 103.289 99.5957 101.453 99.5957 98.6211C99.5957 95.7891 98.4238 93.9531 96.6855 93.9336ZM105.475 91.2188V98.1523H108.385V99.4805H105.475V108.582H103.951V91.2188H105.475ZM115.572 94.4414C115.572 96.7852 117.428 98.9141 120.025 99.7539L119.244 100.945C117.223 100.262 115.611 98.8262 114.83 96.9805C114.068 98.9629 112.438 100.525 110.377 101.277L109.576 100.086C112.174 99.168 114.029 96.9023 114.029 94.4414V93.6992H109.967V92.4492H119.576V93.6992H115.572V94.4414ZM123.658 91.2188V101.727H122.135V91.2188H123.658ZM123.658 102.645V108.582H122.135V103.914H111.979V102.645H123.658ZM147.447 101.727V103.016H140.279V108.621H138.775V103.016H131.627V101.727H147.447ZM140.299 94.6562C140.299 96.8242 143.326 98.7188 146.432 99.1484L145.865 100.379C143.18 99.9688 140.65 98.6211 139.557 96.7266C138.443 98.6406 135.875 99.9688 133.189 100.379L132.623 99.1484C135.709 98.7188 138.775 96.8438 138.775 94.6562V94.6367H133.17V93.3867H138.775V91.2188H140.279V93.3867H145.924V94.6367H140.299V94.6562ZM162.35 91.2188V98.2891H165.162V99.5781H162.35V108.582H160.826V91.2188H162.35ZM157.857 93.0938C157.857 98.0156 155.553 102.488 149.889 105.281L149.029 104.07C153.521 101.834 155.963 98.4941 156.314 94.3828H149.83V93.0938H157.857ZM176.295 96.9219V98.1719H172.779V100.594C174.4 100.525 176.021 100.408 177.525 100.242L177.643 101.375C173.912 101.883 169.771 102 166.51 102L166.275 100.75C167.799 100.74 169.508 100.721 171.256 100.652V98.1719H167.857V92.3516H176.158V93.6211H169.4V96.9219H176.295ZM180.514 91.2383V104.227H178.971V91.2383H180.514ZM181.08 106.922V108.211H169.244V103.328H170.768V106.922H181.08ZM198.893 93.0938V94.3438H188.541V93.0938H192.955V91.1406H194.479V93.0938H198.893ZM193.717 95.2422C196.217 95.2617 197.877 96.4727 197.896 98.3867C197.877 100.281 196.217 101.512 193.717 101.512C191.217 101.512 189.518 100.281 189.537 98.3867C189.518 96.4727 191.217 95.2617 193.717 95.2422ZM193.717 96.4336C192.076 96.4531 190.982 97.2148 191.002 98.3867C190.982 99.5391 192.076 100.281 193.717 100.281C195.338 100.281 196.432 99.5391 196.451 98.3867C196.432 97.2148 195.338 96.4531 193.717 96.4336ZM202.076 91.2188V96.043H204.693V97.332H202.076V102.078H200.553V91.2188H202.076ZM202.076 103.035V108.582H200.553V104.285H190.709V103.035H202.076ZM209.322 101.648V103.68H217.994V101.648H219.537V108.348H207.799V101.648H209.322ZM209.322 107.117H217.994V104.891H209.322V107.117ZM221.607 99.1484V100.418H205.787V99.1484H221.607ZM214.498 92.2344C214.498 94.3828 217.662 96.2969 220.709 96.6875L220.143 97.918C217.447 97.5176 214.811 96.1406 213.717 94.1875C212.604 96.1504 209.947 97.5176 207.271 97.918L206.686 96.6875C209.771 96.2773 212.916 94.4414 212.916 92.2344V91.4141H214.498V92.2344ZM237.389 91.2188V108.621H235.846V91.2188H237.389ZM228.15 92.5664C230.729 92.5859 232.584 94.9297 232.584 98.6211C232.584 102.312 230.729 104.656 228.15 104.656C225.553 104.656 223.717 102.312 223.717 98.6211C223.717 94.9297 225.553 92.5859 228.15 92.5664ZM228.15 93.9336C226.412 93.9531 225.201 95.7891 225.201 98.6211C225.201 101.453 226.412 103.289 228.15 103.289C229.889 103.289 231.1 101.453 231.1 98.6211C231.1 95.7891 229.889 93.9531 228.15 93.9336ZM248.834 101.414V103.582H251.998V101.414H253.424V108.348H247.389V101.414H248.834ZM248.834 107.137H251.998V104.754H248.834V107.137ZM258.385 102.781C258.365 104.617 259.459 106.531 261.588 107.312L260.787 108.484C259.186 107.84 258.131 106.619 257.604 105.164C257.047 106.59 255.992 107.82 254.459 108.484L253.658 107.312C255.748 106.453 256.861 104.539 256.861 102.781V101.297H258.385V102.781ZM250.162 92C252.486 92 254.264 93.3184 254.596 95.3203H258.229V91.2188H259.771V100.418H258.229V96.5898H254.615C254.303 98.6406 252.516 99.9883 250.162 99.9883C247.525 99.9883 245.65 98.3672 245.65 95.9844C245.65 93.6211 247.525 92 250.162 92ZM250.162 93.2891C248.385 93.2891 247.115 94.4023 247.115 95.9844C247.115 97.5859 248.385 98.7188 250.162 98.7188C251.92 98.7188 253.17 97.5859 253.17 95.9844C253.17 94.4023 251.92 93.2891 250.162 93.2891ZM267.33 92.5664C269.693 92.5859 271.393 94.6074 271.646 97.8594H275.533V91.2188H277.057V108.621H275.533V99.1289H271.666C271.48 102.527 269.752 104.656 267.33 104.656C264.771 104.656 262.975 102.312 262.975 98.6211C262.975 94.9297 264.771 92.5859 267.33 92.5664ZM267.33 93.9336C265.611 93.9531 264.439 95.7891 264.439 98.6211C264.439 101.453 265.611 103.289 267.33 103.289C269.029 103.289 270.221 101.453 270.221 98.6211C270.221 95.7891 269.029 93.9531 267.33 93.9336ZM295.846 105.066V106.355H279.947V105.066H283.893V100.379C282.408 99.6074 281.51 98.3574 281.51 96.7852C281.51 94.0898 284.146 92.332 287.857 92.3125C291.568 92.332 294.205 94.0898 294.205 96.7852C294.205 98.3281 293.336 99.5684 291.9 100.34V105.066H295.846ZM287.857 93.582C285.006 93.5625 282.994 94.8516 282.994 96.7852C282.994 98.7188 285.006 100.027 287.857 100.027C290.689 100.027 292.721 98.7188 292.721 96.7852C292.721 94.8516 290.689 93.5625 287.857 93.582ZM285.396 105.066H290.357V100.926C289.605 101.131 288.766 101.238 287.857 101.238C286.969 101.238 286.139 101.141 285.396 100.945V105.066ZM300.045 92.8594L299.908 103.016H298.268L298.131 92.8594H300.045ZM299.088 107.117C298.404 107.117 297.818 106.551 297.838 105.848C297.818 105.164 298.404 104.598 299.088 104.598C299.771 104.598 300.338 105.164 300.338 105.848C300.338 106.551 299.771 107.117 299.088 107.117Z" fill="#A6AEB6"/>
</svg>
