<svg width="27" height="27" viewBox="0 0 27 27" fill="none" xmlns="http://www.w3.org/2000/svg">
<path d="M10.45 1.9C10.198 1.9 9.95641 2.00009 9.77825 2.17825C9.60009 2.35641 9.5 2.59804 9.5 2.85V8.5519C9.5 8.80386 9.39991 9.04549 9.22175 9.22365C9.04359 9.40181 8.80196 9.5019 8.55 9.5019H2.85C2.59804 9.5019 2.35641 9.60199 2.17825 9.78015C2.00009 9.95831 1.9 10.1999 1.9 10.4519V16.1519C1.9 16.4039 2.00009 16.6455 2.17825 16.8237C2.35641 17.0018 2.59804 17.1019 2.85 17.1019H8.55C8.80196 17.1019 9.04359 17.202 9.22175 17.3801C9.39991 17.5583 9.5 17.7999 9.5 18.0519V23.7519C9.5 24.0039 9.60009 24.2455 9.77825 24.4237C9.95641 24.6018 10.198 24.7019 10.45 24.7019H16.15C16.402 24.7019 16.6436 24.6018 16.8218 24.4237C16.9999 24.2455 17.1 24.0039 17.1 23.7519V18.0519C17.1 17.7999 17.2001 17.5583 17.3782 17.3801C17.5564 17.202 17.798 17.1019 18.05 17.1019H23.75C24.002 17.1019 24.2436 17.0018 24.4218 16.8237C24.5999 16.6455 24.7 16.4039 24.7 16.1519V10.4519C24.7 10.1999 24.5999 9.95831 24.4218 9.78015C24.2436 9.60199 24.002 9.5019 23.75 9.5019H18.05C17.798 9.5019 17.5564 9.40181 17.3782 9.22365C17.2001 9.04549 17.1 8.80386 17.1 8.5519V2.85C17.1 2.59804 16.9999 2.35641 16.8218 2.17825C16.6436 2.00009 16.402 1.9 16.15 1.9H10.45ZM7.6 2.85C7.6 2.09413 7.90027 1.36922 8.43474 0.834746C8.96922 0.300267 9.69413 0 10.45 0H16.15C16.9059 0 17.6308 0.300267 18.1653 0.834746C18.6997 1.36922 19 2.09413 19 2.85V7.6019H23.75C24.5059 7.6019 25.2308 7.90217 25.7653 8.43665C26.2997 8.97112 26.6 9.69603 26.6 10.4519V16.1519C26.6 16.9078 26.2997 17.6327 25.7653 18.1672C25.2308 18.7016 24.5059 19.0019 23.75 19.0019H19V23.7519C19 24.5078 18.6997 25.2327 18.1653 25.7672C17.6308 26.3016 16.9059 26.6019 16.15 26.6019H10.45C9.69413 26.6019 8.96922 26.3016 8.43474 25.7672C7.90027 25.2327 7.6 24.5078 7.6 23.7519V19.0019H2.85C2.09413 19.0019 1.36922 18.7016 0.834746 18.1672C0.300267 17.6327 0 16.9078 0 16.1519V10.4519C0 9.69603 0.300267 8.97112 0.834746 8.43665C1.36922 7.90217 2.09413 7.6019 2.85 7.6019H7.6V2.85Z" fill="#4C5EFF"/>
</svg>
