<svg width="64" height="64" viewBox="0 0 64 64" fill="none" xmlns="http://www.w3.org/2000/svg">
<path d="M46.8114 22.4169C46.8114 30.6126 32 50.394 32 50.394C32 50.394 17.1886 30.6126 17.1886 22.4169C17.1886 18.4887 18.749 14.7213 21.5267 11.9436C24.3044 9.16595 28.0717 7.60547 32 7.60547C35.9282 7.60547 39.6956 9.16595 42.4732 11.9436C45.2509 14.7213 46.8114 18.4887 46.8114 22.4169V22.4169Z" stroke="#4C5EFF" stroke-width="3.6" stroke-linecap="round" stroke-linejoin="round"/>
<path d="M32 27.3528C34.7267 27.3528 36.9371 25.1424 36.9371 22.4157C36.9371 19.6889 34.7267 17.4785 32 17.4785C29.2733 17.4785 27.0628 19.6889 27.0628 22.4157C27.0628 25.1424 29.2733 27.3528 32 27.3528Z" stroke="#4C5EFF" stroke-width="3.6" stroke-linecap="round" stroke-linejoin="round"/>
</svg>
