<svg width="64" height="64" viewBox="0 0 64 64" fill="none" xmlns="http://www.w3.org/2000/svg">
<path d="M20.7099 7.60742H12.4813C11.5724 7.60742 10.8356 8.34423 10.8356 9.25314V48.7503C10.8356 49.6592 11.5724 50.396 12.4813 50.396H20.7099C21.6188 50.396 22.3556 49.6592 22.3556 48.7503V9.25314C22.3556 8.34423 21.6188 7.60742 20.7099 7.60742Z" stroke="#4C5EFF" stroke-width="3.6" stroke-linecap="round" stroke-linejoin="round"/>
<path d="M32.2299 14.1914H24.0013C23.0924 14.1914 22.3556 14.9282 22.3556 15.8371V48.7514C22.3556 49.6603 23.0924 50.3971 24.0013 50.3971H32.2299C33.1388 50.3971 33.8756 49.6603 33.8756 48.7514V15.8371C33.8756 14.9282 33.1388 14.1914 32.2299 14.1914Z" stroke="#4C5EFF" stroke-width="3.6" stroke-linecap="round" stroke-linejoin="round"/>
<path d="M43.2448 13.2914L36.8589 14.8895C35.9772 15.1102 35.4413 16.0038 35.6619 16.8855L43.6525 48.8152C43.8731 49.6969 44.7668 50.2328 45.6485 50.0121L52.0344 48.414C52.9161 48.1934 53.452 47.2997 53.2314 46.418L45.2408 14.4884C45.0202 13.6067 44.1265 13.0708 43.2448 13.2914Z" stroke="#4C5EFF" stroke-width="3.6" stroke-linecap="round" stroke-linejoin="round"/>
<path d="M10.8356 38.877H22.3556" stroke="#4C5EFF" stroke-width="3.6" stroke-linecap="round" stroke-linejoin="round"/>
<path d="M22.3556 35.5859H33.8756" stroke="#4C5EFF" stroke-width="3.6" stroke-linecap="round" stroke-linejoin="round"/>
<path d="M42.1041 42.1687L51.5835 39.7988" stroke="#4C5EFF" stroke-width="3.6" stroke-linecap="round" stroke-linejoin="round"/>
</svg>
