<svg width="64" height="64" viewBox="0 0 64 64" fill="none" xmlns="http://www.w3.org/2000/svg">
<path d="M32 15.834L16.9253 30.6125C16.3132 31.2239 15.8277 31.9499 15.4964 32.749C15.1651 33.5482 14.9946 34.4048 14.9946 35.2699C14.9946 36.135 15.1651 36.9916 15.4964 37.7907C15.8277 38.5899 16.3132 39.3159 16.9253 39.9272L21.0725 44.0744C21.6838 44.6865 22.4098 45.172 23.209 45.5033C24.0081 45.8346 24.8647 46.0051 25.7298 46.0051C26.5949 46.0051 27.4515 45.8346 28.2507 45.5033C29.0498 45.172 29.7758 44.6865 30.3872 44.0744L45.1657 28.9997" stroke="#4C5EFF" stroke-width="3.6" stroke-linecap="round" stroke-linejoin="round"/>
<path d="M43.52 7.60547L53.3943 17.4798" stroke="#4C5EFF" stroke-width="3.6" stroke-linecap="round" stroke-linejoin="round"/>
<path d="M38.5829 22.4173L48.4571 12.543" stroke="#4C5EFF" stroke-width="3.6" stroke-linecap="round" stroke-linejoin="round"/>
<path d="M18.9989 42L10.6057 50.3931" stroke="#4C5EFF" stroke-width="3.6" stroke-linecap="round" stroke-linejoin="round"/>
<path d="M27.0629 10.8984L50.1029 33.9384" stroke="#4C5EFF" stroke-width="3.6" stroke-linecap="round" stroke-linejoin="round"/>
</svg>
