<svg width="64" height="64" viewBox="0 0 64 64" fill="none" xmlns="http://www.w3.org/2000/svg">
<path d="M10.595 33.9434H17.1779C19.3602 33.9434 21.4532 34.8103 22.9963 36.3535C24.5395 37.8966 25.4064 39.9896 25.4064 42.1719" stroke="#4C5EFF" stroke-width="3.6" stroke-linecap="round" stroke-linejoin="round"/>
<path d="M15.5322 42.1699H31.9893C33.7352 42.1699 35.4096 42.8635 36.6441 44.098C37.8786 45.3325 38.5722 47.0069 38.5722 48.7528C38.5722 49.1893 38.3988 49.6078 38.0901 49.9165C37.7815 50.2251 37.3629 50.3985 36.9264 50.3985H10.595" stroke="#4C5EFF" stroke-width="3.6" stroke-linecap="round" stroke-linejoin="round"/>
<path d="M37.7493 33.9424L24.5836 21.7642C17.4083 14.5559 27.875 0.600274 37.7493 11.8899C47.6236 0.633188 58.1891 14.5888 50.915 21.7642L37.7493 33.9424Z" stroke="#4C5EFF" stroke-width="3.6" stroke-linecap="round" stroke-linejoin="round"/>
</svg>
