<svg width="64" height="64" viewBox="0 0 64 64" fill="none" xmlns="http://www.w3.org/2000/svg">
<path d="M23.7714 47.1026L10.6057 50.394L13.8972 40.5198V10.8969C13.8972 10.024 14.2439 9.18677 14.8612 8.56951C15.4785 7.95224 16.3156 7.60547 17.1886 7.60547H50.1029C50.9758 7.60547 51.813 7.95224 52.4303 8.56951C53.0475 9.18677 53.3943 10.024 53.3943 10.8969V43.8112C53.3943 44.6841 53.0475 45.5213 52.4303 46.1386C51.813 46.7558 50.9758 47.1026 50.1029 47.1026H23.7714Z" stroke="#4C5EFF" stroke-width="3.6" stroke-linecap="round" stroke-linejoin="round"/>
<path d="M33.6457 15.834V25.7083" stroke="#4C5EFF" stroke-width="3.6" stroke-linecap="round" stroke-linejoin="round"/>
<path d="M33.6457 37.2289C34.5546 37.2289 35.2914 36.4921 35.2914 35.5832C35.2914 34.6743 34.5546 33.9375 33.6457 33.9375C32.7368 33.9375 32 34.6743 32 35.5832C32 36.4921 32.7368 37.2289 33.6457 37.2289Z" stroke="#4C5EFF" stroke-width="3.6" stroke-linecap="round" stroke-linejoin="round"/>
</svg>
