<svg width="64" height="64" viewBox="0 0 64 64" fill="none" xmlns="http://www.w3.org/2000/svg">
<path d="M51.3536 46.7389C51.4054 47.2007 51.3589 47.6682 51.2171 48.1107C51.0752 48.5532 50.8413 48.9606 50.5307 49.3062C50.2193 49.6513 49.8383 49.9265 49.4128 50.1137C48.9873 50.301 48.527 50.3959 48.0621 50.3924H15.9378C15.473 50.3959 15.0126 50.301 14.5872 50.1137C14.1617 49.9265 13.7807 49.6513 13.4692 49.3062C13.1586 48.9606 12.9247 48.5532 12.7829 48.1107C12.6411 47.6682 12.5945 47.2007 12.6464 46.7389L15.5428 20.7695H48.4571L51.3536 46.7389Z" stroke="#4C5EFF" stroke-width="3.6" stroke-linecap="round" stroke-linejoin="round"/>
<path d="M23.7714 20.7712V15.834C23.7714 13.6517 24.6383 11.5587 26.1815 10.0156C27.7247 8.47241 29.8176 7.60547 32 7.60547C34.1823 7.60547 36.2753 8.47241 37.8185 10.0156C39.3616 11.5587 40.2286 13.6517 40.2286 15.834V20.7712" stroke="#4C5EFF" stroke-width="3.6" stroke-linecap="round" stroke-linejoin="round"/>
</svg>
