<svg width="88" height="88" viewBox="0 0 88 88" fill="none" xmlns="http://www.w3.org/2000/svg">
<circle cx="44" cy="44" r="44" fill="#C6CCD1"/>
<path d="M54.6166 46.2016C54.6166 48.7832 53.4981 51.259 51.5071 53.0845C49.5161 54.91 46.8157 55.9355 44 55.9355C41.1843 55.9355 38.4839 54.91 36.4929 53.0845C34.5018 51.259 33.3833 48.7832 33.3833 46.2016V26.7339C33.3833 24.1523 34.5018 21.6764 36.4929 19.851C38.4839 18.0255 41.1843 17 44 17C46.8157 17 49.5161 18.0255 51.5071 19.851C53.4981 21.6764 54.6166 24.1523 54.6166 26.7339V46.2016Z" fill="#6C7582"/>
<path d="M62 46.2016C62 55.3151 53.9416 62.7049 44 62.7049M44 62.7049C34.0584 62.7049 26 55.3151 26 46.2002M44 62.7049V71.0001" stroke="#6C7582" stroke-width="2" stroke-linecap="round" stroke-linejoin="round"/>
</svg>
