<svg width="31" height="31" viewBox="0 0 31 31" fill="none" xmlns="http://www.w3.org/2000/svg">
<path d="M15.5 3.875H13.4592L16.1717 0H13.02L9.40338 5.16667L13.02 10.3333H16.1717L13.4592 6.45833H15.5C17.8809 6.45806 20.1889 7.27996 22.0337 8.78509C23.8784 10.2902 25.1469 12.3862 25.6245 14.7187C26.1021 17.0512 25.7597 19.477 24.655 21.5861C23.5503 23.6952 21.7512 25.3582 19.5618 26.2937C17.3725 27.2293 14.9272 27.3802 12.6394 26.7208C10.3517 26.0614 8.3618 24.6322 7.00624 22.6749C5.65069 20.7176 5.01262 18.3522 5.19993 15.9787C5.38724 13.6052 6.38842 11.3692 8.03421 9.64875L6.47129 7.55625C4.33013 9.64987 2.98295 12.4224 2.66021 15.3996C2.33748 18.3768 3.05923 21.3736 4.70202 23.8774C6.3448 26.3813 8.80653 28.2365 11.6661 29.1257C14.5256 30.015 17.6053 29.883 20.3783 28.7524C23.1513 27.6217 25.4453 25.5627 26.8679 22.9276C28.2904 20.2924 28.7532 17.2448 28.1769 14.3061C27.6007 11.3675 26.0212 8.72033 23.7088 6.81756C21.3964 4.91479 18.4947 3.87463 15.5 3.875Z" fill="black"/>
<path d="M12.9167 19.5183C13.6142 19.6992 14.2342 19.8025 14.8672 19.8025C16.0684 19.8025 16.7142 19.4538 16.7142 18.4333C16.7142 17.4646 15.9909 17.1158 13.0976 17.0642L13.498 12.75H18.2772L18.0317 14.0933H14.7509L14.5959 15.8758C17.4634 16.0438 18.4322 16.7671 18.4322 18.3558C18.4322 20.0479 17.2567 21.0942 14.9059 21.0942C14.2472 21.0942 13.7434 21.0167 13.0717 20.8617L12.9167 19.5183Z" fill="black"/>
</svg>
