<svg width="52" height="52" viewBox="0 0 52 52" fill="none" xmlns="http://www.w3.org/2000/svg">
<rect x="0.5" y="0.5" width="51" height="51" rx="15.5" fill="white"/>
<rect x="0.5" y="0.5" width="51" height="51" rx="15.5" stroke="#EAEEFF"/>
<path d="M36.2915 25.7285C36.2915 26.806 35.8635 27.8393 35.1016 28.6011C34.3398 29.363 33.3064 29.791 32.229 29.791C31.1516 29.791 30.1182 29.363 29.3564 28.6011C28.5945 27.8393 28.1665 26.806 28.1665 25.7285C28.1665 24.6511 28.5945 23.6178 29.3564 22.8559C30.1182 22.094 31.1516 21.666 32.229 21.666C33.3064 21.666 34.3398 22.094 35.1016 22.8559C35.8635 23.6178 36.2915 24.6511 36.2915 25.7285ZM23.2915 25.7285C23.2915 26.806 22.8635 27.8393 22.1016 28.6011C21.3398 29.363 20.3064 29.791 19.229 29.791C18.1516 29.791 17.1182 29.363 16.3564 28.6011C15.5945 27.8393 15.1665 26.806 15.1665 25.7285C15.1665 24.6511 15.5945 23.6178 16.3564 22.8559C17.1182 22.094 18.1516 21.666 19.229 21.666C20.3064 21.666 21.3398 22.094 22.1016 22.8559C22.8635 23.6178 23.2915 24.6511 23.2915 25.7285Z" stroke="#3540A8" stroke-width="1.5"/>
<path d="M19.229 29.791H25.729H32.229" stroke="#3540A8" stroke-width="1.5" stroke-linecap="round"/>
<rect x="7.75" y="17.75" width="36.5" height="15.5" rx="7.75" stroke="#3540A8" stroke-width="1.5"/>
</svg>
