<svg width="45" height="45" viewBox="0 0 45 45" fill="none" xmlns="http://www.w3.org/2000/svg">
<path d="M29.8636 37C29.2058 37 28.6323 36.7591 28.143 36.2774C27.6537 35.7957 27.4091 35.231 27.4091 34.5833V10.4167C27.4091 9.769 27.6537 9.20431 28.143 8.72258C28.6323 8.24086 29.2058 8 29.8636 8H33.5455C34.2033 8 34.7768 8.24086 35.2661 8.72258C35.7554 9.20431 36 9.769 36 10.4167V34.5833C36 35.231 35.7554 35.7957 35.2661 36.2774C34.7768 36.7591 34.2033 37 33.5455 37H29.8636ZM11.4545 37C10.7967 37 10.2232 36.7591 9.73391 36.2774C9.24464 35.7957 9 35.231 9 34.5833V10.4167C9 9.769 9.24464 9.20431 9.73391 8.72258C10.2232 8.24086 10.7967 8 11.4545 8H15.1364C15.7942 8 16.3677 8.24086 16.857 8.72258C17.3463 9.20431 17.5909 9.769 17.5909 10.4167V34.5833C17.5909 35.231 17.3463 35.7957 16.857 36.2774C16.3677 36.7591 15.7942 37 15.1364 37H11.4545Z" fill="#191919"/>
</svg>
