<svg width="52" height="52" viewBox="0 0 52 52" fill="none" xmlns="http://www.w3.org/2000/svg">
<rect x="0.5" y="0.5" width="51" height="51" rx="15.5" fill="#F2F6FA"/>
<rect x="0.5" y="0.5" width="51" height="51" rx="15.5" stroke="#E2E4E7"/>
<path d="M19.2642 17.2819C19.3397 17.2122 19.3997 17.1294 19.4406 17.0383C19.4814 16.9472 19.5025 16.8496 19.5025 16.7509C19.5025 16.6523 19.4814 16.5547 19.4406 16.4636C19.3997 16.3725 19.3397 16.2897 19.2642 16.2199C19.1887 16.1502 19.099 16.0949 19.0003 16.0572C18.9016 16.0194 18.7958 16 18.689 16C18.5821 16 18.4763 16.0194 18.3776 16.0572C18.2789 16.0949 18.1892 16.1502 18.1137 16.2199L19.2642 17.2819ZM13.814 21.2509L13.2387 20.7199C13.163 20.7896 13.103 20.8724 13.062 20.9635C13.0211 21.0546 13 21.1523 13 21.2509C13 21.3496 13.0211 21.4473 13.062 21.5384C13.103 21.6295 13.163 21.7123 13.2387 21.7819L13.814 21.2509ZM18.1137 26.2819C18.2663 26.4228 18.4732 26.5019 18.689 26.5019C18.9047 26.5019 19.1116 26.4228 19.2642 26.2819C19.4168 26.1411 19.5025 25.9501 19.5025 25.7509C19.5025 25.5518 19.4168 25.3608 19.2642 25.2199L18.1137 26.2819ZM13.814 32.5009C13.5985 32.5009 13.3918 32.58 13.2394 32.7206C13.0871 32.8613 13.0015 33.052 13.0015 33.2509C13.0015 33.4499 13.0871 33.6406 13.2394 33.7813C13.3918 33.9219 13.5985 34.0009 13.814 34.0009V32.5009ZM18.1137 16.2199L13.2387 20.7199L14.3892 21.7819L19.2642 17.2819L18.1137 16.2199ZM13.2387 21.7819L18.1137 26.2819L19.2642 25.2199L14.3892 20.7199L13.2387 21.7819ZM13.814 22.0009H31.689V20.5009H13.814V22.0009ZM37.3765 27.2509C37.3765 27.9404 37.2293 28.6231 36.9435 29.26C36.6577 29.897 36.2388 30.4757 35.7106 30.9633C35.1825 31.4508 34.5555 31.8375 33.8655 32.1013C33.1754 32.3651 32.4358 32.5009 31.689 32.5009V34.0009C33.6283 34.0009 35.4883 33.2898 36.8597 32.0239C38.231 30.758 39.0014 29.0412 39.0014 27.2509H37.3765ZM31.689 22.0009C33.1974 22.0009 34.644 22.5541 35.7106 23.5386C36.7772 24.5232 37.3765 25.8586 37.3765 27.2509H39.0014C39.0014 25.4607 38.231 23.7438 36.8597 22.478C35.4883 21.2121 33.6283 20.5009 31.689 20.5009V22.0009ZM13.814 34.0009H31.689V32.5009H13.814V34.0009Z" fill="#3540A8"/>
</svg>
