<svg width="48" height="48" viewBox="0 0 48 48" fill="none" xmlns="http://www.w3.org/2000/svg">
<rect width="48" height="48" rx="24" fill="white"/>
<path d="M17.1628 23C16.6106 23 16.1628 23.4477 16.1628 24C16.1628 24.5523 16.6106 25 17.1628 25L17.1628 24L17.1628 23ZM31.5444 24.7071C31.9349 24.3166 31.9349 23.6834 31.5444 23.2929L25.1804 16.9289C24.7899 16.5384 24.1567 16.5384 23.7662 16.9289C23.3757 17.3195 23.3757 17.9526 23.7662 18.3431L29.423 24L23.7662 29.6569C23.3757 30.0474 23.3757 30.6805 23.7662 31.0711C24.1567 31.4616 24.7899 31.4616 25.1804 31.0711L31.5444 24.7071ZM17.1628 24L17.1628 25L30.8373 25L30.8373 24L30.8373 23L17.1628 23L17.1628 24Z" fill="#9AADFF"/>
</svg>
