<svg width="31" height="31" viewBox="0 0 31 31" fill="none" xmlns="http://www.w3.org/2000/svg">
<path d="M24.5288 7.55625L22.9659 9.64875C24.6118 11.3692 25.6131 13.6053 25.8004 15.9788C25.9878 18.3524 25.3497 20.7178 23.9941 22.6752C22.6384 24.6322 20.6486 26.0612 18.361 26.7204C16.0734 27.3796 13.6283 27.2287 11.4391 26.2932C9.25 25.3577 7.45104 23.6951 6.34631 21.5863C5.24158 19.4776 4.89883 17.0521 5.376 14.7198C5.85339 12.3872 7.12167 10.291 8.9664 8.78565C10.8111 7.28031 13.1191 6.4582 15.5001 6.45833H17.5409L14.8284 10.3333H17.9801L21.5967 5.16667L17.9801 0H14.8284L17.5409 3.875H15.5001C12.5055 3.87463 9.60373 4.91479 7.29131 6.81756C4.97889 8.72033 3.39946 11.3675 2.82321 14.3061C2.24696 17.2448 2.70969 20.2924 4.13225 22.9276C5.55481 25.5627 7.8488 27.6217 10.6218 28.7524C13.3948 29.883 16.4745 30.015 19.334 29.1257C22.1936 28.2365 24.6553 26.3813 26.2981 23.8774C27.9409 21.3736 28.6626 18.3768 28.3399 15.3996C28.0172 12.4224 26.67 9.64987 24.5288 7.55625Z" fill="black"/>
<path d="M12.9167 19.5183C13.6142 19.6992 14.2342 19.8025 14.8672 19.8025C16.0684 19.8025 16.7142 19.4538 16.7142 18.4333C16.7142 17.4646 15.9909 17.1158 13.0976 17.0642L13.498 12.75H18.2772L18.0317 14.0933H14.7509L14.5959 15.8758C17.4634 16.0438 18.4322 16.7671 18.4322 18.3558C18.4322 20.0479 17.2567 21.0942 14.9059 21.0942C14.2472 21.0942 13.7434 21.0167 13.0717 20.8617L12.9167 19.5183Z" fill="black"/>
</svg>
