<svg width="45" height="45" viewBox="0 0 45 45" fill="none" xmlns="http://www.w3.org/2000/svg">
<path d="M11.61 6.88195L37.05 21.1938C37.2817 21.3244 37.4746 21.5142 37.6088 21.7439C37.743 21.9735 37.8137 22.2347 37.8137 22.5007C37.8137 22.7667 37.743 23.0279 37.6088 23.2575C37.4746 23.4872 37.2817 23.677 37.05 23.8076L11.61 38.1194C11.3817 38.2478 11.1237 38.3141 10.8618 38.3118C10.5998 38.3095 10.3431 38.2386 10.117 38.1063C9.891 37.9739 9.70356 37.7847 9.57337 37.5574C9.44319 37.3301 9.3748 37.0726 9.375 36.8107V8.1907C9.37512 7.92892 9.44376 7.67173 9.57407 7.44469C9.70439 7.21765 9.89186 7.02867 10.1178 6.89653C10.3438 6.76439 10.6005 6.69369 10.8622 6.69146C11.124 6.68923 11.3818 6.75368 11.61 6.88195Z" fill="#191919"/>
</svg>
