<svg width="48" height="48" viewBox="0 0 48 48" fill="none" xmlns="http://www.w3.org/2000/svg">
<path fill-rule="evenodd" clip-rule="evenodd" d="M31.4699 15.4696C31.7628 15.1768 32.2376 15.1768 32.5305 15.4696C32.8232 15.7625 32.8233 16.2373 32.5305 16.5302L25.0607 23.9999L32.5305 31.4696C32.8232 31.7625 32.8233 32.2373 32.5305 32.5302C32.2376 32.823 31.7628 32.823 31.4699 32.5302L24.0002 25.0605L16.5305 32.5302C16.2376 32.823 15.7628 32.823 15.4699 32.5302C15.177 32.2373 15.177 31.7625 15.4699 31.4696L22.9396 23.9999L15.4699 16.5302C15.177 16.2373 15.177 15.7625 15.4699 15.4696C15.7628 15.1768 16.2376 15.1768 16.5305 15.4696L24.0002 22.9394L31.4699 15.4696Z" fill="#191919"/>
</svg>
