<svg preserveAspectRatio="none" width="100%" height="100%" overflow="visible" style="display: block;" viewBox="0 0 76 13" fill="none" xmlns="http://www.w3.org/2000/svg">
<g id="icons-right">
<g id="battery">
<path id="outline" opacity="0.35" d="M52.0017 0.52735H69.0017C70.9194 0.52735 72.4743 2.08222 72.4743 4.00001V9.00001C72.4743 10.9178 70.9194 12.4727 69.0017 12.4727H52.0017C50.0839 12.4727 48.529 10.9178 48.529 9.00001V4.00001C48.529 2.08222 50.0839 0.52735 52.0017 0.52735Z" stroke="var(--stroke-0, black)" stroke-width="1.05509"/>
<path id="end" opacity="0.4" d="M74.0021 5.00103V9.22141C74.8511 8.86397 75.4033 8.03246 75.4033 7.11122C75.4033 6.18998 74.8511 5.35847 74.0021 5.00103" fill="var(--fill-0, black)"/>
<path id="charged" d="M50.0008 4.00248C50.0008 2.89791 50.8962 2.00248 52.0008 2.00248H69.001C70.1055 2.00248 71.001 2.89791 71.001 4.00248V9.00257C71.001 10.1071 70.1055 11.0026 69.001 11.0026H52.0008C50.8962 11.0026 50.0008 10.1071 50.0008 9.00257V4.00248Z" fill="var(--fill-0, black)"/>
</g>
<path id="wi-fi" d="M31.1167 9.08966C32.5366 7.86391 34.6158 7.86384 36.0356 9.08966C36.1069 9.15551 36.1488 9.24836 36.1509 9.34649C36.1528 9.44478 36.1151 9.54033 36.0464 9.60919L33.8227 11.8992C33.7576 11.9665 33.6683 12.0047 33.5757 12.0047C33.4832 12.0046 33.3946 11.9663 33.3296 11.8992L31.1059 9.60919C31.0372 9.54027 30.9994 9.44478 31.0014 9.34649C31.0036 9.24831 31.0453 9.15548 31.1167 9.08966ZM28.1128 6.26739C31.1719 3.36296 35.9092 3.36284 38.9682 6.26739C39.0372 6.33549 39.0766 6.4292 39.0776 6.52716C39.0786 6.62513 39.0408 6.71938 38.9731 6.78888L37.688 8.11407C37.5555 8.24943 37.3414 8.25269 37.2055 8.12091C36.201 7.19238 34.8938 6.67844 33.5386 6.67852C32.1843 6.67918 30.8783 7.19307 29.8745 8.12091C29.7386 8.25253 29.5245 8.24938 29.3921 8.11407L28.1079 6.78888C28.0401 6.71946 28.0025 6.62519 28.0034 6.52716C28.0043 6.42911 28.0437 6.3355 28.1128 6.26739ZM25.1098 3.44806C29.8018 -1.14177 37.204 -1.14177 41.896 3.44806C41.9639 3.51624 42.0019 3.60964 42.0024 3.70684C42.0029 3.80381 41.9658 3.89677 41.8989 3.96563L40.6118 5.29181C40.4792 5.42763 40.2639 5.42957 40.1294 5.29571C38.3418 3.561 35.9699 2.59371 33.5034 2.59356C31.0366 2.59356 28.6643 3.56086 26.8764 5.29571C26.742 5.42978 26.5265 5.42783 26.394 5.29181L25.1069 3.96563C25.0399 3.8966 25.0018 3.80308 25.0024 3.70587C25.0032 3.60883 25.042 3.51608 25.1098 3.44806Z" fill="var(--fill-0, black)"/>
<g id="signal">
<path d="M10.0001 3.00018C10.0001 2.44789 10.4478 2.00017 11.0001 2.00017H12.0001C12.5524 2.00017 13.0001 2.44789 13.0001 3.00018V11.0003C13.0001 11.5525 12.5524 12.0003 12.0001 12.0003H11.0001C10.4478 12.0003 10.0001 11.5525 10.0001 11.0003V3.00018Z" fill="var(--fill-0, black)"/>
<path d="M15.0001 1.00016C15.0001 0.447872 15.4479 0.000152588 16.0001 0.000152588H17.0002C17.5524 0.000152588 18.0002 0.447872 18.0002 1.00016V11.0003C18.0002 11.5525 17.5524 12.0003 17.0002 12.0003H16.0001C15.4479 12.0003 15.0001 11.5525 15.0001 11.0003V1.00016Z" fill="var(--fill-0, black)"/>
<path d="M5.00005 6.50021C5.00005 5.94792 5.44777 5.5002 6.00006 5.5002H7.00006C7.55235 5.5002 8.00007 5.94792 8.00007 6.50021V11.0003C8.00007 11.5525 7.55235 12.0003 7.00006 12.0003H6.00006C5.44777 12.0003 5.00005 11.5525 5.00005 11.0003V6.50021Z" fill="var(--fill-0, black)"/>
<path d="M9.53674e-07 9.00023C9.53674e-07 8.44794 0.44772 8.00022 1.00001 8.00022H2.00002C2.55231 8.00022 3.00003 8.44794 3.00003 9.00023V11.0003C3.00003 11.5525 2.55231 12.0003 2.00002 12.0003H1.00001C0.44772 12.0003 9.53674e-07 11.5525 9.53674e-07 11.0003V9.00023Z" fill="var(--fill-0, black)"/>
</g>
</g>
</svg>
